<?xml version="1.0" standalone="no"?>
<!DOCTYPE svg PUBLIC "-//W3C//DTD SVG 20010904//EN"
 "http://www.w3.org/TR/2001/REC-SVG-20010904/DTD/svg10.dtd">
<svg version="1.0" xmlns="http://www.w3.org/2000/svg"
 width="60.000000pt" height="60.000000pt" viewBox="0 0 60.000000 60.000000"
 preserveAspectRatio="xMidYMid meet">

<g transform="translate(0.000000,60.000000) scale(0.100000,-0.100000)"
fill="#000000" stroke="none">
<path d="M52 528 c-17 -17 -17 -399 0 -416 20 -20 65 -15 71 8 7 27 47 27 54
0 5 -19 14 -20 123 -20 109 0 118 1 123 20 7 27 47 27 54 0 6 -23 51 -28 71
-8 17 17 17 359 0 376 -8 8 -60 12 -170 12 -147 0 -158 1 -168 20 -9 17 -21
20 -78 20 -40 0 -73 -5 -80 -12z m180 -125 c19 -17 25 -78 8 -88 -18 -11 -11
-53 9 -60 11 -3 22 -12 25 -20 4 -12 -8 -15 -74 -15 -66 0 -78 2 -74 15 4 8
10 15 14 15 5 0 16 7 25 16 14 15 14 18 0 40 -43 66 12 147 67 97z m243 -63
c0 -12 -16 -16 -69 -18 -69 -3 -95 6 -81 28 4 7 33 10 78 8 56 -2 72 -6 72
-18z m0 -80 c0 -12 -16 -16 -69 -18 -69 -3 -95 6 -81 28 4 7 33 10 78 8 56 -2
72 -6 72 -18z"/>
</g>
</svg>
