<?xml version="1.0" standalone="no"?>
<!DOCTYPE svg PUBLIC "-//W3C//DTD SVG 20010904//EN"
 "http://www.w3.org/TR/2001/REC-SVG-20010904/DTD/svg10.dtd">
<svg version="1.0" xmlns="http://www.w3.org/2000/svg"
 width="60.000000pt" height="60.000000pt" viewBox="0 0 60.000000 60.000000"
 preserveAspectRatio="xMidYMid meet">

<g transform="translate(0.000000,60.000000) scale(0.100000,-0.100000)"
fill="#000000" stroke="none">
<path d="M242 546 c-16 -21 -29 -25 -83 -28 -89 -4 -90 -8 -87 -231 4 -233
-13 -217 228 -217 241 0 224 -16 228 217 3 223 2 227 -87 231 -54 3 -67 7 -83
28 -15 18 -29 24 -58 24 -29 0 -43 -6 -58 -24z m78 -46 c0 -13 -7 -20 -20 -20
-13 0 -20 7 -20 20 0 13 7 20 20 20 13 0 20 -7 20 -20z m14 -116 c31 -30 9
-84 -34 -84 -24 0 -50 26 -50 50 0 24 26 50 50 50 10 0 26 -7 34 -16z m44
-130 c12 -8 22 -24 22 -35 0 -18 -8 -19 -100 -19 -92 0 -100 1 -100 19 0 11
10 27 22 35 30 21 126 21 156 0z"/>
</g>
</svg>
