<?xml version="1.0" standalone="no"?>
<!DOCTYPE svg PUBLIC "-//W3C//DTD SVG 20010904//EN"
 "http://www.w3.org/TR/2001/REC-SVG-20010904/DTD/svg10.dtd">
<svg version="1.0" xmlns="http://www.w3.org/2000/svg"
 width="60.000000pt" height="60.000000pt" viewBox="0 0 60.000000 60.000000"
 preserveAspectRatio="xMidYMid meet">

<g transform="translate(0.000000,60.000000) scale(0.100000,-0.100000)"
fill="#000000" stroke="none">
<path d="M111 526 c-44 -25 -50 -50 -51 -214 0 -169 8 -200 57 -221 19 -8 92
-11 223 -9 l195 3 0 195 0 195 -177 3 -177 2 -3 28 c-4 32 -30 39 -67 18z
m389 -246 l0 -160 -180 0 c-167 0 -181 1 -200 20 -35 35 -21 81 30 98 l30 11
0 95 0 96 160 0 160 0 0 -160z"/>
<path d="M382 380 c11 -17 9 -24 -14 -47 l-28 -27 -30 29 -30 29 -32 -32 c-25
-24 -30 -34 -20 -44 9 -9 16 -7 32 7 20 18 21 18 50 -10 l30 -29 38 37 c43 42
50 44 68 20 12 -16 13 -11 14 35 l0 52 -45 0 c-43 0 -44 -1 -33 -20z"/>
<path d="M225 209 c-15 -23 15 -30 121 -27 89 2 109 6 109 18 0 12 -20 16
-112 18 -74 2 -114 -1 -118 -9z"/>
</g>
</svg>
